<?xml version="1.0" encoding="utf-8"?>
<!-- Generated by IcoMoon.io -->
<svg version="1.1" xmlns="http://www.w3.org/2000/svg" xmlns:xlink="http://www.w3.org/1999/xlink" width="624" height="24" viewBox="0 0 624 24">
<svg id="icon-mic" width="24" height="24" viewBox="0 0 24 24" x="0" y="0">
<path d="M17.297 11.016h1.688q0 2.531-1.758 4.43t-4.242 2.273v3.281h-1.969v-3.281q-2.484-0.375-4.242-2.273t-1.758-4.43h1.688q0 2.203 1.57 3.633t3.727 1.43 3.727-1.43 1.57-3.633zM12 14.016q-1.219 0-2.109-0.891t-0.891-2.109v-6q0-1.219 0.891-2.109t2.109-0.891 2.109 0.891 0.891 2.109v6q0 1.219-0.891 2.109t-2.109 0.891z"></path>
</svg>
<svg id="icon-location_on" width="24" height="24" viewBox="0 0 24 24" x="40" y="0">
<path d="M12 11.484q1.031 0 1.758-0.727t0.727-1.758-0.727-1.758-1.758-0.727-1.758 0.727-0.727 1.758 0.727 1.758 1.758 0.727zM12 2.016q2.906 0 4.945 2.039t2.039 4.945q0 1.453-0.727 3.328t-1.758 3.516-2.039 3.070-1.711 2.273l-0.75 0.797q-0.281-0.328-0.75-0.867t-1.688-2.156-2.133-3.141-1.664-3.445-0.75-3.375q0-2.906 2.039-4.945t4.945-2.039z"></path>
</svg>
<svg id="icon-account_circle" width="24" height="24" viewBox="0 0 24 24" x="80" y="0">
<path d="M12 19.219q1.594 0 3.352-0.938t2.648-2.297q-0.047-1.313-2.109-2.203t-3.891-0.891-3.891 0.867-2.109 2.227q0.891 1.359 2.648 2.297t3.352 0.938zM12 5.016q-1.219 0-2.109 0.891t-0.891 2.109 0.891 2.109 2.109 0.891 2.109-0.891 0.891-2.109-0.891-2.109-2.109-0.891zM12 2.016q4.125 0 7.055 2.93t2.93 7.055-2.93 7.055-7.055 2.93-7.055-2.93-2.93-7.055 2.93-7.055 7.055-2.93z"></path>
</svg>
<svg id="icon-emoji_food_beverage" width="24" height="24" viewBox="0 0 24 24" x="120" y="0">
<path d="M3.984 18.984h16.031v2.016h-16.031v-2.016zM20.016 8.016v-3h-2.016v3h2.016zM20.016 3q0.844 0 1.406 0.586t0.563 1.43v3q0 0.844-0.563 1.406t-1.406 0.563h-2.016v3q0 1.641-1.172 2.836t-2.813 1.195h-6q-1.641 0-2.836-1.195t-1.195-2.836v-9.984h4.031v2.391l-1.828 1.453q-0.188 0.141-0.188 0.375v4.266q0 0.516 0.516 0.516h3.984q0.516 0 0.516-0.516v-4.266q0-0.234-0.188-0.375l-1.828-1.453v-2.391h11.016z"></path>
</svg>
<svg id="icon-sports_mma" width="24" height="24" viewBox="0 0 24 24" x="160" y="0">
<path d="M15 9.984v-3h-8.016v3h8.016zM18 6.984q0.422 0 0.703 0.305t0.281 0.727v2.766q0 0.281-0.047 0.422l-0.797 3.984q-0.188 0.797-0.938 0.797h-10.406q-0.797 0-0.938-0.797l-0.797-3.984q-0.047-0.141-0.047-0.422v-5.766q0-0.797 0.586-1.406t1.383-0.609h8.016q0.797 0 1.406 0.609t0.609 1.406v3q0-0.422 0.281-0.727t0.703-0.305zM6.984 20.016v-3h10.031v3q0 0.422-0.305 0.703t-0.727 0.281h-7.969q-0.422 0-0.727-0.281t-0.305-0.703z"></path>
</svg>
</svg>
